<svg width="512" height="512" viewBox="0 0 512 512" fill="none" xmlns="http://www.w3.org/2000/svg">
<circle cx="256" cy="256" r="192" fill="#3C3C3C"/>
<path d="M139.314 190.514C133.065 184.265 133.065 174.135 139.314 167.886L167.886 139.314C174.135 133.065 184.265 133.065 190.514 139.314L372.686 321.486C378.935 327.735 378.935 337.865 372.686 344.114L344.114 372.686C337.865 378.935 327.735 378.935 321.486 372.686L139.314 190.514Z" fill="#FF0000"/>
<path d="M190.514 372.686C184.265 378.935 174.135 378.935 167.886 372.686L139.314 344.114C133.065 337.865 133.065 327.735 139.314 321.486L321.486 139.314C327.735 133.065 337.865 133.065 344.114 139.314L372.686 167.886C378.935 174.135 378.935 184.265 372.686 190.514L190.514 372.686Z" fill="#FF0000"/>
</svg>
