<svg width="512" height="512" viewBox="0 0 512 512" fill="none" xmlns="http://www.w3.org/2000/svg">
<path d="M472.367 313.975C489.438 318.55 499.754 336.203 493.087 352.571C479.196 386.674 458.059 417.501 431 442.845C396.126 475.508 352.806 497.759 305.943 507.081C259.08 516.403 210.543 512.423 165.824 495.592C121.105 478.761 81.989 449.75 52.9015 411.843C23.814 373.935 5.91611 328.644 1.23271 281.092C-3.45069 233.541 5.26739 185.628 26.4006 142.774C47.5338 99.9202 80.2385 63.8361 120.815 38.6042C152.298 19.0264 187.546 6.58846 224.083 1.99734C241.618 -0.20611 256 14.3269 256 32L256 231.446C256 245.929 265.728 258.607 279.718 262.355L472.367 313.975Z" fill="#D9D9D9"/>
</svg>
