<svg width="512" height="512" viewBox="0 0 512 512" fill="none" xmlns="http://www.w3.org/2000/svg">
<rect x="24" y="24" width="464" height="464" stroke="#D9D9D9" stroke-width="48"/>
<rect width="512" height="128" fill="#D9D9D9"/>
<path d="M190.456 407.872C178.168 407.872 166.136 406.464 154.36 403.648C142.584 400.832 131.96 396.352 122.488 390.208C113.016 383.808 105.336 375.616 99.448 365.632C93.816 355.648 91 343.616 91 329.536H144.76C144.76 330.816 145.016 332.608 145.528 334.912C146.296 337.216 147.704 339.776 149.752 342.592C151.8 345.408 154.616 348.096 158.2 350.656C161.784 353.216 166.52 355.392 172.408 357.184C178.552 358.72 185.976 359.488 194.68 359.488C198.264 359.488 201.976 359.36 205.816 359.104C209.912 358.592 213.624 357.824 216.952 356.8C220.28 355.52 222.968 353.728 225.016 351.424C227.064 349.12 228.088 346.048 228.088 342.208C228.088 336.832 225.528 332.608 220.408 329.536C215.544 326.464 209.016 324.032 200.824 322.24C192.888 320.192 184.056 318.144 174.328 316.096C164.856 314.048 155.384 311.488 145.912 308.416C136.44 305.344 127.736 301.248 119.8 296.128C112.12 290.752 106.104 283.968 101.752 275.776C97.656 267.328 95.992 256.832 96.76 244.288C97.784 231.744 102.136 220.992 109.816 212.032C117.496 203.072 128.376 196.16 142.456 191.296C156.536 186.432 173.432 184 193.144 184C209.016 184 223.864 186.816 237.688 192.448C251.768 198.08 263.16 206.656 271.864 218.176C280.824 229.696 285.304 244.288 285.304 261.952H233.464C233.464 256.064 231.928 251.328 228.856 247.744C225.784 243.904 221.816 241.088 216.952 239.296C212.088 237.248 206.968 235.968 201.592 235.456C196.216 234.688 191.352 234.304 187 234.304C177.528 234.304 169.592 235.456 163.192 237.76C157.048 240.064 153.976 244.544 153.976 251.2C153.976 257.088 156.536 261.696 161.656 265.024C166.776 268.096 173.432 270.656 181.624 272.704C189.816 274.496 198.776 276.416 208.504 278.464C218.488 280.256 228.344 282.56 238.072 285.376C247.8 288.192 256.504 292.16 264.184 297.28C272.12 302.144 278.264 308.672 282.616 316.864C287.224 325.056 289.016 335.552 287.992 348.352C287.224 360.896 282.616 371.648 274.168 380.608C265.976 389.312 254.712 396.096 240.376 400.96C226.296 405.568 209.656 407.872 190.456 407.872Z" fill="#D9D9D9"/>
<path d="M384.37 404.032C369.01 404.032 356.85 400.448 347.89 393.28C338.93 386.112 334.45 373.056 334.45 354.112V276.544H384.37V362.944H421.234V404.032H384.37ZM312.178 281.536V245.056C316.786 245.056 320.882 244.672 324.466 243.904C328.05 242.88 331.122 241.088 333.682 238.528C336.498 235.712 338.546 231.616 339.826 226.24C341.362 220.864 342.13 213.696 342.13 204.736H384.37V245.056H420.082V281.536H312.178Z" fill="#D9D9D9"/>
</svg>
