<svg width="512" height="512" viewBox="0 0 512 512" fill="none" xmlns="http://www.w3.org/2000/svg">
<rect width="512" height="512" fill="#D9D9D9"/>
<rect width="512" height="128" fill="#3C823C"/>
<path d="M148.818 226V365.636H117.182L66.7273 292.273H65.9091V365.636H28V226H60.1818L109.818 299.091H110.909V226H148.818Z" fill="#3C823C"/>
<path d="M166.75 365.636V226H267.386V256.545H204.659V280.545H262.205V311.091H204.659V335.091H267.114V365.636H166.75Z" fill="#3C823C"/>
<path d="M321.642 365.636L280.46 226H322.733L341.824 311.909H342.915L365.551 226H398.824L421.46 312.182H422.551L441.642 226H483.915L442.733 365.636H406.46L382.733 287.636H381.642L357.915 365.636H321.642Z" fill="#3C823C"/>
</svg>
