<svg width="512" height="512" viewBox="0 0 512 512" fill="none" xmlns="http://www.w3.org/2000/svg">
<rect width="512" height="512" fill="#D9D9D9"/>
<rect width="512" height="128" fill="#3C823C"/>
<path d="M93.25 271.75C92.9167 267.583 91.3542 264.333 88.5625 262C85.8125 259.667 81.625 258.5 76 258.5C72.4167 258.5 69.4792 258.937 67.1875 259.812C64.9375 260.646 63.2708 261.792 62.1875 263.25C61.1042 264.708 60.5417 266.375 60.5 268.25C60.4167 269.792 60.6875 271.188 61.3125 272.438C61.9792 273.646 63.0208 274.75 64.4375 275.75C65.8542 276.708 67.6667 277.583 69.875 278.375C72.0833 279.167 74.7083 279.875 77.75 280.5L88.25 282.75C95.3333 284.25 101.396 286.229 106.438 288.688C111.479 291.146 115.604 294.042 118.812 297.375C122.021 300.667 124.375 304.375 125.875 308.5C127.417 312.625 128.208 317.125 128.25 322C128.208 330.417 126.104 337.542 121.938 343.375C117.771 349.208 111.812 353.646 104.062 356.688C96.3542 359.729 87.0833 361.25 76.25 361.25C65.125 361.25 55.4167 359.604 47.125 356.313C38.875 353.021 32.4583 347.958 27.875 341.125C23.3333 334.25 21.0417 325.458 21 314.75H54C54.2083 318.667 55.1875 321.958 56.9375 324.625C58.6875 327.292 61.1458 329.313 64.3125 330.688C67.5208 332.063 71.3333 332.75 75.75 332.75C79.4583 332.75 82.5625 332.292 85.0625 331.375C87.5625 330.458 89.4583 329.188 90.75 327.562C92.0417 325.938 92.7083 324.083 92.75 322C92.7083 320.042 92.0625 318.333 90.8125 316.875C89.6042 315.375 87.6042 314.042 84.8125 312.875C82.0208 311.667 78.25 310.542 73.5 309.5L60.75 306.75C49.4167 304.292 40.4792 300.188 33.9375 294.438C27.4375 288.646 24.2083 280.75 24.25 270.75C24.2083 262.625 26.375 255.521 30.75 249.438C35.1667 243.312 41.2708 238.542 49.0625 235.125C56.8958 231.708 65.875 230 76 230C86.3333 230 95.2708 231.729 102.812 235.188C110.354 238.646 116.167 243.521 120.25 249.813C124.375 256.063 126.458 263.375 126.5 271.75H93.25Z" fill="#3C823C"/>
<path d="M169.734 359.75H132.234L174.484 231.75H221.984L264.234 359.75H226.734L198.734 267H197.734L169.734 359.75ZM162.734 309.25H233.234V335.25H162.734V309.25Z" fill="#3C823C"/>
<path d="M293 231.75L319.25 322H320.25L346.5 231.75H385.75L343.5 359.75H296L253.75 231.75H293Z" fill="#3C823C"/>
<path d="M398.078 359.75V231.75H490.328V259.75H432.828V281.75H485.578V309.75H432.828V331.75H490.078V359.75H398.078Z" fill="#3C823C"/>
</svg>
